<svg width="15" height="15" viewBox="0 0 15 15" fill="none" xmlns="http://www.w3.org/2000/svg">
<path d="M14.3814 8.68102C14.0197 10.2813 13.1921 11.6076 11.8988 12.6598C10.6054 13.7121 9.11469 14.2382 7.42671 14.2382C6.13333 14.2382 4.93859 13.9203 3.8425 13.2846C2.75737 12.6489 1.89695 11.7884 1.26121 10.7033C0.625483 9.60721 0.307617 8.41248 0.307617 7.11909C0.307617 5.82571 0.625483 4.63645 1.26121 3.55133C1.89695 2.45524 2.75737 1.58933 3.8425 0.953597C4.93859 0.317866 6.13333 0 7.42671 0C9.11469 0 10.6054 0.526122 11.8988 1.57837C13.1921 2.63061 14.0197 3.95688 14.3814 5.55717L10.1889 6.13261C9.9806 5.56265 9.62437 5.09681 9.12017 4.7351C8.61597 4.37339 8.05148 4.19254 7.42671 4.19254C6.61561 4.19254 5.92507 4.47752 5.3551 5.04749C4.78514 5.61745 4.50016 6.30799 4.50016 7.11909C4.50016 7.9302 4.78514 8.62074 5.3551 9.1907C5.92507 9.76067 6.61561 10.0456 7.42671 10.0456C8.05148 10.0456 8.61597 9.8648 9.12017 9.50309C9.62437 9.14138 9.9806 8.67554 10.1889 8.10557L14.3814 8.68102Z" fill="url(#paint0_linear_123_963)"/>
<defs>
<linearGradient id="paint0_linear_123_963" x1="0.307617" y1="5.44201" x2="20.3332" y2="9.23996" gradientUnits="userSpaceOnUse">
<stop stop-color="#798616"/>
<stop offset="1" stop-color="#06CB5D"/>
</linearGradient>
</defs>
</svg>
