<svg width="93" height="26" viewBox="0 0 93 26" fill="none" xmlns="http://www.w3.org/2000/svg">
<g clip-path="url(#clip0_187_783)">
<path d="M12.2286 14.7143C11.9143 16.1047 11.1952 17.2571 10.0714 18.1714C8.94762 19.0857 7.6524 19.5428 6.1857 19.5428C5.06191 19.5428 4.02381 19.2666 3.07143 18.7142C2.12857 18.1619 1.38095 17.4143 0.82857 16.4714C0.27619 15.519 0 14.4809 0 13.3571C0 12.2333 0.27619 11.2 0.82857 10.2571C1.38095 9.30473 2.12857 8.55235 3.07143 7.99997C4.02381 7.44759 5.06191 7.1714 6.1857 7.1714C7.6524 7.1714 8.94762 7.62854 10.0714 8.54282C11.1952 9.45711 11.9143 10.6095 12.2286 12L8.5857 12.5C8.40474 12.0047 8.09526 11.6 7.65714 11.2857C7.21902 10.9714 6.72858 10.8143 6.1857 10.8143C5.48095 10.8143 4.88095 11.0619 4.38571 11.5571C3.89048 12.0524 3.64286 12.6524 3.64286 13.3571C3.64286 14.0619 3.89048 14.6619 4.38571 15.1571C4.88095 15.6524 5.48095 15.9 6.1857 15.9C6.72858 15.9 7.21902 15.7428 7.65714 15.4286C8.09526 15.1142 8.40474 14.7095 8.5857 14.2142L12.2286 14.7143ZM15.8894 7.99997C16.8418 7.44759 17.8799 7.1714 19.0037 7.1714C20.1275 7.1714 21.1608 7.44759 22.1037 7.99997C23.0561 8.55235 23.8084 9.30473 24.3608 10.2571C24.9132 11.2 25.1894 12.2333 25.1894 13.3571C25.1894 14.4809 24.9132 15.519 24.3608 16.4714C23.8084 17.4143 23.0561 18.1619 22.1037 18.7142C21.1608 19.2666 20.1275 19.5428 19.0037 19.5428C17.8799 19.5428 16.8418 19.2666 15.8894 18.7142C14.9465 18.1619 14.1989 17.4143 13.6465 16.4714C13.0942 15.519 12.818 14.4809 12.818 13.3571C12.818 12.2333 13.0942 11.2 13.6465 10.2571C14.1989 9.30473 14.9465 8.55235 15.8894 7.99997ZM20.8037 11.5571C20.3084 11.0619 19.7084 10.8143 19.0037 10.8143C18.2989 10.8143 17.6989 11.0619 17.2037 11.5571C16.7084 12.0524 16.4608 12.6524 16.4608 13.3571C16.4608 14.0619 16.7084 14.6619 17.2037 15.1571C17.6989 15.6524 18.2989 15.9 19.0037 15.9C19.7084 15.9 20.3084 15.6524 20.8037 15.1571C21.2989 14.6619 21.5465 14.0619 21.5465 13.3571C21.5465 12.6524 21.2989 12.0524 20.8037 11.5571ZM70.5738 7.99997C71.526 7.44759 72.564 7.1714 73.6878 7.1714C74.8116 7.1714 75.8454 7.44759 76.788 7.99997C77.7402 8.55235 78.4926 9.30473 79.0452 10.2571C79.5978 11.2 79.8738 12.2333 79.8738 13.3571C79.8738 14.4809 79.5978 15.519 79.0452 16.4714C78.4926 17.4143 77.7402 18.1619 76.788 18.7142C75.8454 19.2666 74.8116 19.5428 73.6878 19.5428C72.564 19.5428 71.526 19.2666 70.5738 18.7142C69.6312 18.1619 68.883 17.4143 68.331 16.4714C67.7784 15.519 67.5024 14.4809 67.5024 13.3571C67.5024 12.2333 67.7784 11.2 68.331 10.2571C68.883 9.30473 69.6312 8.55235 70.5738 7.99997ZM75.4878 11.5571C74.9928 11.0619 74.3928 10.8143 73.6878 10.8143C72.9834 10.8143 72.3834 11.0619 71.8878 11.5571C71.3928 12.0524 71.145 12.6524 71.145 13.3571C71.145 14.0619 71.3928 14.6619 71.8878 15.1571C72.3834 15.6524 72.9834 15.9 73.6878 15.9C74.3928 15.9 74.9928 15.6524 75.4878 15.1571C75.9834 14.6619 76.2312 14.0619 76.2312 13.3571C76.2312 12.6524 75.9834 12.0524 75.4878 11.5571ZM88.7958 19.3428V12.9C88.7958 11.6619 88.482 10.8571 87.8532 10.4857C87.3198 10.1714 86.7342 10.2476 86.0958 10.7143C85.2864 11.3047 84.7152 12.2904 84.3816 13.6714C84.2202 14.3571 84.1392 15.0952 84.1392 15.8857V19.3428H80.496V7.71426C80.8008 7.82854 81.1248 7.89521 81.4674 7.91425C81.8202 7.92378 82.134 7.89997 82.4106 7.84282C82.6866 7.78569 82.9392 7.71902 83.1678 7.64283C83.4054 7.56664 83.5914 7.49521 83.7246 7.42854L83.9106 7.34283H84.1392V10.4571C84.8154 9.03807 85.6674 8.06188 86.6958 7.52854C87.1722 7.28092 87.672 7.14759 88.1958 7.12854C88.7292 7.10949 89.244 7.21426 89.739 7.44283C90.2436 7.66188 90.696 7.98568 91.0962 8.41426C91.5054 8.84283 91.8294 9.41425 92.0676 10.1285C92.3154 10.8428 92.439 11.6428 92.439 12.5285V19.3428H88.7958Z" fill="#404040"/>
<path d="M42.4118 19.3429V12.9C42.4118 11.6714 42.0975 10.8333 41.4689 10.3857C40.9451 10.0048 40.3689 10.0143 39.7403 10.4143C38.9404 10.9286 38.3737 11.8952 38.0404 13.3143C37.8499 14.0857 37.7546 14.9476 37.7546 15.9V19.3429H34.1118V12.9C34.1118 11.6619 33.7927 10.8571 33.1546 10.4857C32.6213 10.1714 32.0356 10.2476 31.3975 10.7143C30.5975 11.3048 30.0308 12.2905 29.6975 13.6714C29.5356 14.3667 29.4547 15.1143 29.4547 15.9143V19.3429H25.8118V7.71429C26.1166 7.82857 26.4404 7.89524 26.7832 7.91428C27.1356 7.92381 27.4499 7.9 27.7261 7.84285C28.0022 7.78572 28.2547 7.71905 28.4832 7.64286C28.7213 7.56667 28.907 7.49524 29.0404 7.42857L29.2261 7.34286H29.4547V10.4571C30.1308 9.0381 30.9832 8.06191 32.0118 7.52857C32.4213 7.31905 32.8499 7.19048 33.2975 7.14286C33.7546 7.09524 34.207 7.14286 34.6546 7.28571C35.1023 7.41905 35.5165 7.63333 35.8975 7.92857C36.2879 8.22381 36.6308 8.62381 36.926 9.12857C37.2308 9.62381 37.4499 10.1952 37.5832 10.8429C38.288 9.21429 39.1975 8.10952 40.3118 7.52857C40.7879 7.28095 41.288 7.14762 41.8118 7.12857C42.3451 7.10952 42.8594 7.21429 43.3546 7.44286C43.8594 7.66191 44.3118 7.98571 44.7118 8.41429C45.1213 8.84286 45.4451 9.41428 45.6832 10.1286C45.9308 10.8429 46.0546 11.6429 46.0546 12.5286V19.3429H42.4118Z" fill="url(#paint0_linear_187_783)"/>
<path d="M63.2568 19.3429V12.9C63.2568 11.6714 62.943 10.8333 62.3142 10.3857C61.7904 10.0048 61.2144 10.0143 60.5856 10.4143C59.7856 10.9286 59.2189 11.8952 58.8856 13.3143C58.6951 14.0857 58.5999 14.9476 58.5999 15.9V19.3429H54.957V12.9C54.957 11.6619 54.6379 10.8571 53.9998 10.4857C53.4665 10.1714 52.8808 10.2476 52.2427 10.7143C51.4427 11.3048 50.8761 12.2905 50.5427 13.6714C50.3808 14.3667 50.2998 15.1143 50.2998 15.9143V19.3429H46.657V7.71429C46.9618 7.82857 47.2855 7.89524 47.6284 7.91428C47.9808 7.92381 48.2951 7.9 48.5713 7.84285C48.8475 7.78572 49.0998 7.71905 49.3284 7.64286C49.5665 7.56667 49.7522 7.49524 49.8856 7.42857L50.0713 7.34286H50.2998V10.4571C50.976 9.0381 51.8284 8.06191 52.857 7.52857C53.2665 7.31905 53.6951 7.19048 54.1427 7.14286C54.5998 7.09524 55.0522 7.14286 55.4998 7.28571C55.9474 7.41905 56.3617 7.63333 56.7427 7.92857C57.1332 8.22381 57.4761 8.62381 57.7713 9.12857C58.0761 9.62381 58.2951 10.1952 58.4284 10.8429C59.1332 9.21429 60.0426 8.10952 61.1568 7.52857C61.6332 7.28095 62.133 7.14762 62.6568 7.12857C63.1902 7.10952 63.7044 7.21429 64.2 7.44286C64.7046 7.66191 65.157 7.98571 65.5572 8.41429C65.9664 8.84286 66.2904 9.41428 66.5286 10.1286C66.7758 10.8429 66.9 11.6429 66.9 12.5286V19.3429H63.2568Z" fill="url(#paint1_linear_187_783)"/>
</g>
<defs>
<linearGradient id="paint0_linear_187_783" x1="6.89703e-05" y1="11.6" x2="94.2001" y2="11.6" gradientUnits="userSpaceOnUse">
<stop offset="0.29324" stop-color="#798616"/>
<stop offset="1" stop-color="#06CB5D"/>
</linearGradient>
<linearGradient id="paint1_linear_187_783" x1="-3.3275e-05" y1="11.6" x2="94.2" y2="11.6" gradientUnits="userSpaceOnUse">
<stop offset="0.453001" stop-color="#798616"/>
<stop offset="1" stop-color="#06CB5D"/>
</linearGradient>
<clipPath id="clip0_187_783">
<rect width="93" height="13.2" fill="white" transform="translate(0 6.79999)"/>
</clipPath>
</defs>
</svg>
