<svg width="487" height="487" viewBox="0 0 487 487" fill="none" xmlns="http://www.w3.org/2000/svg">
<path d="M48.6977 104.705C73.0477 104.997 221.583 104.145 235.048 103.292C235.206 103.292 235.357 103.232 235.47 103.123C235.584 103.014 235.651 102.865 235.657 102.708C235.657 99.5667 235.487 96.4256 235.414 93.2601C235.414 92.1887 235.414 93.1383 211.404 94.1854C210.234 92.6362 208.965 91.1641 207.606 89.778C208.896 88.9258 215.227 84.348 214.229 76.629C215.811 75.9006 217.08 74.6312 217.808 73.0496C218.507 71.6486 218.818 70.0861 218.709 68.5243C218.599 66.9626 218.074 65.4586 217.187 64.1688C216.299 62.8789 215.083 61.8502 213.663 61.1895C212.244 60.5288 210.674 60.2603 209.116 60.4119C208.089 60.5254 207.098 60.8554 206.208 61.3801C205.318 61.9047 204.55 62.6122 203.953 63.4557C201.121 62.0449 197.903 61.6083 194.798 62.2138C193.593 60.5853 191.895 59.3885 189.956 58.8008C188.018 58.2131 185.941 58.2657 184.035 58.9509C182.556 59.4882 181.241 60.3996 180.219 61.5963C179.197 62.7931 178.502 64.2343 178.203 65.7794C177.904 67.3245 178.01 68.9208 178.512 70.4126C179.013 71.9044 179.893 73.2408 181.064 74.2914C180.057 77.3808 180.188 80.7286 181.434 83.7297C182.68 86.7307 184.959 89.187 187.858 90.6546C187.688 90.8981 184.546 94.3802 184.376 94.8915C177.923 94.8915 171.446 95.0133 164.896 95.0133C164.896 76.629 165.797 29.804 165.797 24.7635C165.797 24.6343 165.746 24.5105 165.654 24.4192C165.563 24.3278 165.439 24.2765 165.31 24.2765C160.878 24.2765 156.446 24.1304 152.015 24.2765V12.6859C152.007 12.5647 151.96 12.4492 151.881 12.357C151.802 12.2648 151.695 12.2007 151.576 12.1746L136.966 12.7833C136.831 12.7833 136.701 12.8372 136.605 12.9331C136.509 13.029 136.455 13.159 136.455 13.2947C135.725 23.9113 136.772 83.9097 136.966 87.2213C128.614 65.7446 119.313 38.1317 109.889 17.3855L95.5958 21.7685L95.7419 18.3838C95.7452 18.3082 95.7332 18.2328 95.7065 18.162C95.6798 18.0912 95.6391 18.0266 95.5867 17.972C95.5344 17.9173 95.4716 17.8739 95.402 17.8442C95.3324 17.8146 95.2575 17.7993 95.1819 17.7994C91.6998 17.7994 80.9128 17.1907 78.9891 17.4342C78.2586 17.4342 78.4047 18.1647 78.356 19.2848C74.387 19.2848 70.3936 18.9926 66.4002 18.9195C66.3353 18.916 66.2704 18.9262 66.2097 18.9494C66.149 18.9726 66.0939 19.0084 66.048 19.0543C66.0021 19.1003 65.9663 19.1554 65.9431 19.2161C65.9198 19.2767 65.9097 19.3416 65.9132 19.4065C65.9132 29.1465 64.9148 88.1466 64.9879 93.4062C59.363 93.4062 47.188 93.1383 47.2367 93.6984C47.4559 97.1561 47.9185 100.589 48.1377 104.071C48.1417 104.226 48.2 104.374 48.3025 104.49C48.4049 104.606 48.5448 104.682 48.6977 104.705ZM216.25 64.6732C216.868 65.5058 217.306 66.4583 217.534 67.4697C217.763 68.4812 217.778 69.5292 217.579 70.5468C217.38 71.5644 216.97 72.5292 216.376 73.3795C215.783 74.2297 215.018 74.9467 214.132 75.4846C213.536 72.934 212.361 70.555 210.697 68.5322C209.033 66.5094 206.926 64.8973 204.538 63.8209C205.282 62.9548 206.219 62.2752 207.273 61.8367C208.327 61.3981 209.47 61.2128 210.609 61.2957C211.748 61.3786 212.851 61.7273 213.831 62.3138C214.811 62.9004 215.639 63.7085 216.25 64.6732ZM181.746 61.459C182.583 60.7359 183.556 60.1882 184.609 59.8486C185.661 59.509 186.771 59.3843 187.873 59.482C188.974 59.5797 190.045 59.8977 191.021 60.4172C191.997 60.9366 192.859 61.647 193.556 62.506C190.801 63.2862 188.266 64.6983 186.152 66.6301C184.039 68.5619 182.405 70.96 181.381 73.634C180.603 72.8117 179.996 71.8439 179.593 70.7862C179.191 69.7286 179.001 68.6018 179.035 67.4706C179.069 66.3394 179.326 65.226 179.791 64.1944C180.256 63.1628 180.921 62.2332 181.746 61.459ZM182.209 82.887C181.174 79.9574 181.131 76.769 182.085 73.8124C183.04 70.8558 184.94 68.2949 187.493 66.5238C205.073 54.4949 217.321 76.2638 211.283 84.5671C209.629 86.8852 207.433 88.7631 204.886 90.0365C202.339 91.3099 199.519 91.9401 196.673 91.8721C188.004 91.1903 183.402 85.9794 182.209 82.7896V82.887ZM188.832 91.166C191.696 92.4215 194.812 92.9937 197.936 92.8374C201.059 92.681 204.102 91.8003 206.827 90.265L210.163 94.1854C202.046 94.51 193.929 94.7292 185.813 94.8428C186.056 94.7211 188.686 91.4338 188.832 91.166ZM152.137 25.007C156.373 25.2505 160.659 25.1775 164.92 25.2262C164.75 34.2113 164.117 90.0946 164.044 94.9646H151.869C151.771 84.4454 152.137 26.7846 152.137 25.007ZM137.527 13.806C142.056 13.6356 146.56 13.4895 151.065 13.2947C151.065 23.7895 150.773 89.1693 150.773 94.9646L138.281 94.8185C137.697 84.3723 137.113 19.4796 137.502 13.806H137.527ZM95.5958 21.7685C102.901 41.8329 113.006 76.069 123.647 94.575C128.354 93.1543 132.875 91.176 137.113 88.6823C137.259 90.7277 137.38 92.7731 137.527 94.8185C122.746 94.6237 107.99 94.3071 93.2095 93.9906C94.3053 74.3401 95.401 26.1758 95.5958 21.7685ZM79.5492 18.5056C81.3024 18.3595 91.3346 18.9195 94.5731 18.9439C93.5748 38.4239 92.406 88.5118 92.1381 93.9662L77.5281 93.6497C78.8187 74.0479 79.2813 23.9356 79.5492 18.5056ZM66.9115 19.9179L78.3317 20.4536C77.5525 39.4709 77.0168 88.2683 76.8707 93.6253L65.7427 93.4062C66.0593 83.861 66.7654 25.1775 66.9115 19.9179ZM234.464 93.7714V102.075C210.43 103.487 62.6503 103.511 49.2578 103.463C49.0386 100.322 48.576 97.2048 48.3568 94.088C57.9264 94.3071 171.738 98.6171 234.464 93.7714Z" fill="black"/>
<path d="M197.575 81.1348C197.63 81.1893 197.694 81.2325 197.765 81.262C197.836 81.2915 197.912 81.3067 197.989 81.3067C198.066 81.3067 198.142 81.2915 198.213 81.262C198.284 81.2325 198.349 81.1893 198.403 81.1348C201.106 77.8476 203.785 74.4873 206.366 71.0783C206.755 70.5669 205.879 69.8851 205.465 70.3721C202.884 73.4889 200.376 76.6788 197.916 79.8686C195.777 77.5375 193.257 75.5861 190.465 74.0977C190.222 73.9759 189.905 74.2925 190.149 74.5116C191.366 75.6317 196.407 79.9417 197.575 81.1348ZM345.964 73.9759C346.646 73.2941 351.784 50.3077 352.758 45.876C352.636 45.6082 348.911 39.2528 345.891 37.7918C345.891 37.7918 315.843 45.7786 316.525 47.8971C316.963 49.1876 345.185 74.7551 345.964 73.9759ZM353.269 44.8777C361.646 37.7918 355.485 32.5079 351.589 34.0906C349.788 35.0865 348.056 36.201 346.402 37.4266C350.079 38.9606 353.22 44.829 353.269 44.8777ZM310.949 145.224C311.192 144.81 310.389 144.372 310.17 144.761C309.913 145.147 309.579 145.475 309.189 145.725C308.799 145.975 308.362 146.142 307.905 146.215C307.448 146.288 306.98 146.266 306.532 146.15C306.084 146.034 305.664 145.826 305.3 145.541C305.225 145.495 305.137 145.476 305.05 145.486C304.964 145.496 304.883 145.535 304.821 145.597C304.759 145.659 304.72 145.74 304.709 145.827C304.699 145.914 304.718 146.002 304.764 146.076C305.222 146.437 305.748 146.702 306.31 146.854C306.873 147.007 307.46 147.045 308.038 146.965C308.615 146.886 309.17 146.69 309.671 146.391C310.171 146.092 310.606 145.695 310.949 145.224ZM302.11 129.397C302.138 129.471 302.187 129.535 302.253 129.581C302.318 129.626 302.396 129.651 302.475 129.651C302.555 129.651 302.632 129.626 302.698 129.581C302.763 129.535 302.813 129.471 302.84 129.397C302.901 128.342 302.901 127.285 302.84 126.231C302.797 126.161 302.736 126.102 302.663 126.062C302.591 126.022 302.509 126.001 302.426 126.001C302.344 126.001 302.262 126.022 302.19 126.062C302.117 126.102 302.056 126.161 302.012 126.231C301.983 127.287 302.016 128.344 302.11 129.397ZM358.918 139.38C360.233 134.242 363.228 129.348 368.658 128.106C368.902 128.106 368.853 127.643 368.658 127.668C360.258 128.642 355.582 141.523 358.188 147.829C359.795 151.75 363.74 153.868 367.319 155.67C370.412 157.204 377.522 160.54 374.624 165.021C372.833 167.055 370.37 168.377 367.684 168.746C366.316 169.131 364.913 169.384 363.496 169.501C362.971 169.608 362.428 169.589 361.911 169.445C361.395 169.301 360.92 169.036 360.526 168.673C360.112 168.21 359.381 168.819 359.673 169.331C360.672 171.035 362.887 170.865 364.543 170.645C376.718 168.965 378.569 163.121 374.624 159.006C368.78 152.919 355.509 153.406 358.918 139.38ZM429.874 136.044C430.848 136.044 430.264 135.362 430.824 117.148C430.818 117.011 430.758 116.881 430.659 116.785C430.559 116.69 430.426 116.637 430.288 116.637C425.857 116.637 408.057 116.637 403.503 117.002C402.846 117.002 403.308 116.783 403.917 134.948C403.914 135.02 403.925 135.091 403.951 135.157C403.977 135.224 404.016 135.284 404.066 135.335C404.117 135.385 404.177 135.425 404.244 135.45C404.31 135.476 404.382 135.488 404.453 135.484C413 135.849 421.425 136.215 429.874 136.044ZM405.062 134.437C404.745 128.885 404.526 123.309 404.258 117.733H429.753C429.533 123.504 429.558 129.275 429.363 135.046C421.254 135.143 413.17 134.607 405.062 134.437ZM407.813 143.081C407.867 143.671 407.956 144.256 408.081 144.834C408.227 145.443 409.274 145.321 409.226 144.664C409.177 144.007 409.079 143.641 408.982 143.13C416.141 143.3 423.324 143.13 430.507 143.13C430.662 143.13 430.811 143.068 430.921 142.959C431.03 142.849 431.092 142.701 431.092 142.546C431.092 142.391 431.03 142.242 430.921 142.132C430.811 142.023 430.662 141.961 430.507 141.961C423.202 141.961 416.068 141.961 408.836 142.302C408.752 141.79 408.63 141.286 408.471 140.792C408.448 140.697 408.393 140.612 408.316 140.551C408.238 140.49 408.143 140.457 408.045 140.457C407.946 140.457 407.851 140.49 407.773 140.551C407.696 140.612 407.641 140.697 407.618 140.792C407.57 141.27 407.57 141.751 407.618 142.229H404.843C404.784 142.229 404.729 142.252 404.688 142.293C404.646 142.334 404.623 142.39 404.623 142.448C404.623 142.506 404.646 142.562 404.688 142.603C404.729 142.644 404.784 142.667 404.843 142.667L407.813 143.081ZM430.434 150.24C431.165 150.24 431.214 149.071 430.434 149.096C428.365 149.096 416.238 149.607 415.483 149.631C415.483 149.388 415.094 148.292 414.972 147.976C414.85 147.659 414.363 147.683 414.388 147.976C414.412 148.268 414.388 149.364 414.388 149.558C413.365 149.558 407.083 149.388 405.135 149.729C404.842 149.729 404.867 150.216 405.135 150.289C408.257 150.607 411.397 150.721 414.534 150.63C414.575 151.071 414.64 151.51 414.729 151.945C414.779 152.07 414.869 152.175 414.985 152.243C415.1 152.311 415.236 152.34 415.369 152.323C415.503 152.306 415.627 152.246 415.723 152.151C415.818 152.056 415.88 151.932 415.897 151.799C415.84 151.404 415.758 151.014 415.654 150.63C416.384 150.703 428.316 150.484 430.434 150.24ZM431.262 158.714C431.262 158.572 431.206 158.436 431.105 158.335C431.005 158.235 430.869 158.178 430.727 158.178C404.161 158.519 404.891 158.178 404.916 159.03C405.159 170.889 405.329 182.772 405.768 194.655C405.678 194.716 405.609 194.804 405.57 194.906C405.531 195.009 405.525 195.12 405.551 195.226C405.578 195.332 405.636 195.427 405.718 195.499C405.801 195.571 405.903 195.616 406.011 195.629C414.355 195.809 422.702 195.426 430.994 194.484C431.124 194.484 431.247 194.433 431.339 194.341C431.43 194.25 431.481 194.126 431.481 193.997C431.311 182.236 430.459 170.451 431.262 158.714ZM406.255 194.581C406.255 182.893 405.963 171.205 405.938 159.517C413.998 159.517 422.082 159.347 430.142 159.25C429.412 170.67 430.142 182.139 430.483 193.559C422.441 194.472 414.345 194.813 406.255 194.581Z" fill="black"/>
<path d="M414.267 162.755C414.267 162.341 413.731 162.366 413.366 162.341H408.91C408.83 162.352 408.755 162.384 408.692 162.434C408.629 162.484 408.581 162.55 408.554 162.625C408.526 162.701 408.52 162.782 408.535 162.861C408.551 162.94 408.588 163.013 408.642 163.072C408.642 164.63 408.496 166.164 408.496 167.723C408.502 167.837 408.55 167.945 408.631 168.026C408.712 168.107 408.82 168.155 408.934 168.161C410.664 168.378 412.415 168.378 414.145 168.161C414.348 166.367 414.389 164.557 414.267 162.755ZM413.439 167.382H409.372C409.372 165.994 409.372 164.606 409.178 163.218H413.39C413.585 163.218 413.439 167.333 413.439 167.382ZM414.242 171.034C414.121 170.596 413.707 170.62 413.341 170.596H408.885C408.801 170.603 408.72 170.634 408.653 170.685C408.585 170.737 408.535 170.807 408.506 170.887C408.478 170.966 408.473 171.053 408.493 171.135C408.513 171.218 408.556 171.293 408.618 171.351C408.496 172.885 408.471 174.443 408.471 176.002C408.478 176.114 408.527 176.219 408.608 176.296C408.69 176.373 408.798 176.416 408.91 176.416C410.64 176.633 412.39 176.633 414.121 176.416C414.323 174.629 414.364 172.828 414.242 171.034ZM413.414 175.637H409.348C409.348 174.249 409.348 172.861 409.153 171.497H413.366C413.561 171.497 413.414 175.612 413.414 175.637ZM414.072 178.875C413.95 178.461 413.512 178.486 413.171 178.461H408.715C408.63 178.461 408.547 178.487 408.477 178.535C408.408 178.584 408.354 178.653 408.325 178.733C408.296 178.812 408.292 178.899 408.314 178.981C408.336 179.063 408.382 179.137 408.447 179.192C408.301 180.75 408.301 182.284 408.301 183.843C408.301 183.959 408.347 184.07 408.429 184.152C408.512 184.235 408.623 184.281 408.739 184.281C410.469 184.498 412.22 184.498 413.95 184.281C414.153 182.486 414.194 180.677 414.072 178.875ZM413.244 183.502H409.153C409.153 182.114 409.153 180.726 408.983 179.338H413.195C413.39 179.338 413.244 183.453 413.244 183.502ZM413.95 186.765C413.95 186.326 413.414 186.351 413.074 186.326H408.618C408.533 186.333 408.452 186.364 408.385 186.415C408.318 186.467 408.267 186.537 408.238 186.617C408.21 186.697 408.205 186.783 408.225 186.865C408.245 186.948 408.288 187.023 408.35 187.081C408.204 188.615 408.204 190.174 408.204 191.708C408.204 191.824 408.25 191.935 408.332 192.017C408.414 192.1 408.526 192.146 408.642 192.146C410.372 192.363 412.123 192.363 413.853 192.146C414.047 190.359 414.08 188.558 413.95 186.765ZM413.122 191.367H409.056C409.056 189.979 409.056 188.591 408.885 187.227H413.098C413.317 187.227 413.049 191.342 413.049 191.367H413.122ZM426.515 165.775C426.618 165.775 426.717 165.734 426.79 165.661C426.863 165.588 426.904 165.489 426.904 165.385C426.904 165.282 426.863 165.183 426.79 165.11C426.717 165.037 426.618 164.996 426.515 164.996H417.043C416.991 164.996 416.941 165.016 416.905 165.053C416.868 165.089 416.848 165.139 416.848 165.19C416.848 165.242 416.868 165.292 416.905 165.328C416.941 165.365 416.991 165.385 417.043 165.385L426.515 165.775ZM417.627 173.202C417.573 173.219 417.525 173.253 417.491 173.299C417.457 173.345 417.439 173.4 417.439 173.457C417.439 173.514 417.457 173.57 417.491 173.616C417.525 173.662 417.573 173.696 417.627 173.713C419.185 173.713 426.247 174.029 427.026 173.932C427.44 173.932 427.635 173.202 427.026 173.129C426.417 173.055 419.21 173.129 417.627 173.202ZM426.977 181.213C427.094 181.213 427.205 181.167 427.287 181.084C427.37 181.002 427.416 180.891 427.416 180.774C427.416 180.658 427.37 180.547 427.287 180.464C427.205 180.382 427.094 180.336 426.977 180.336C423.786 180.391 420.599 180.619 417.432 181.018C417.361 181.018 417.293 181.046 417.243 181.096C417.193 181.147 417.164 181.215 417.164 181.286C417.164 181.357 417.193 181.425 417.243 181.475C417.293 181.525 417.361 181.554 417.432 181.554C419.088 181.529 425.395 181.261 426.977 181.213ZM427.927 187.933C426.296 188.079 419.015 188.639 418.187 188.932C417.992 188.932 417.944 189.321 418.187 189.37C418.942 189.565 426.174 189.029 427.927 188.907C428.56 188.859 428.56 187.885 427.927 187.933ZM167.09 148.365C167.674 148.559 168.186 148.852 167.893 149.582C167.139 151.652 163.023 151.36 162.244 151.554C161.465 151.749 161.66 152.504 162.244 152.504C170.304 152.504 169.549 148.438 168.648 147.634C167.691 147.144 166.65 146.838 165.58 146.733C163.145 146.027 157.058 141.595 167.187 135.605C167.246 135.56 167.288 135.497 167.308 135.425C167.327 135.354 167.323 135.278 167.295 135.209C167.268 135.14 167.218 135.082 167.155 135.044C167.092 135.005 167.017 134.989 166.944 134.996C158.738 137.699 159.907 143.835 161.392 145.686C162.877 147.537 166.067 147.999 167.09 148.365ZM210.238 179.362C214.621 175.661 219.783 174.882 222.413 171.01C224.653 167.698 220.587 163.291 217.714 161.441C212.844 158.372 200.035 160.54 198.818 159.931C196.018 158.494 199.841 154.793 208.558 153.356C219.321 151.579 237.778 152.553 239.434 151.36C242.672 149.217 245.205 140.962 216.983 144.055C211.109 144.807 205.336 146.203 199.768 148.218C196.547 149.114 193.596 150.786 191.172 153.088C189.978 154.252 189.169 155.752 188.851 157.388C188.533 159.024 188.723 160.719 189.394 162.244C192.657 168.185 201.74 165.507 209.483 166.871C213.891 167.65 211.918 169.5 205.076 174.833C198.891 179.703 202.008 191.488 223.46 188.226C205.855 185.791 209.045 180.36 210.238 179.362ZM289.936 363.935C292.176 350.372 297.874 296.364 300.552 283.264C302.977 270.684 306.85 258.427 312.094 246.739C322.005 225.432 338.879 206.415 361.257 198.501C361.303 198.478 361.339 198.44 361.36 198.393C361.38 198.346 361.384 198.293 361.369 198.243C361.355 198.194 361.323 198.151 361.28 198.123C361.238 198.094 361.186 198.082 361.135 198.087C340.243 205.173 324.026 221.78 313.701 241.284C307.811 252.71 303.416 264.847 300.625 277.395C297.557 290.349 289.01 361.963 288.742 363.667C288.596 364.398 289.765 364.739 289.936 363.935Z" fill="black"/>
<path d="M472.705 237.218H431.067C430.837 236.713 430.751 236.155 430.82 235.604C430.889 235.054 431.109 234.534 431.456 234.101C431.565 233.912 431.623 233.698 431.623 233.48C431.623 233.262 431.565 233.048 431.456 232.859C430.945 231.203 428.632 231.277 427.268 231.35C421.765 231.569 402.918 232.324 401.603 232.616C404.038 224.434 405.207 215.571 402.869 207.584C405.767 207.584 447.381 207.146 447.43 207.121C447.514 207.173 447.609 207.201 447.708 207.204C447.806 207.206 447.903 207.183 447.99 207.136C448.076 207.089 448.148 207.02 448.2 206.936C448.251 206.853 448.28 206.757 448.282 206.659C449.207 192.317 447.527 100.712 447.43 96.7428C447.771 96.4749 447.673 95.7931 447.138 95.8418C438.161 96.3288 429.176 96.7428 420.182 97.0837C421.181 95.9636 449.256 57.0766 450.912 54.7877C452.178 55.2017 460.092 49.7473 454.686 42.9049C453.243 41.2105 451.237 40.0931 449.037 39.7577C446.836 39.4222 444.589 39.8912 442.706 41.0787C432.455 41.8092 370.119 46.2652 365.76 46.2652C363.082 44.0981 358.625 43.1971 356.02 45.1695C351.759 48.5298 352.903 56.6383 358.455 57.7097C360.582 57.6925 362.678 57.2018 364.591 56.2731C373.99 55.5913 435.206 50.4291 439.321 50.0882C439.492 52.1092 441.756 53.4485 442.073 53.5946C438.274 58.0019 411.708 93.4555 409.444 97.4246C405.621 97.4246 341.556 98.0577 337.831 98.009C338.495 97.2797 339.267 96.6557 340.119 96.1584C339.275 95.6363 338.323 95.3144 337.335 95.2174C336.348 95.1203 335.351 95.2506 334.422 95.5983C332.926 96.1474 331.523 96.9191 330.258 97.8872H329.138C328.654 96.1838 327.958 94.5478 327.068 93.0172C325.976 91.5054 324.458 90.3526 322.709 89.7056C323.227 90.8084 323.517 92.004 323.563 93.2213C323.609 94.4386 323.41 95.6528 322.977 96.7915C322.71 96.2551 322.375 95.7557 321.979 95.3061C320.038 92.7827 317.24 91.0586 314.114 90.4605C308.142 89.1404 301.891 90.2158 296.703 93.4555C294.699 94.7719 293.031 96.54 291.833 98.6177C288.595 95.4035 290.592 89.1943 290.981 88.8777C288.761 90.3303 286.933 92.3078 285.658 94.6353C284.384 96.9627 283.703 99.5683 283.676 102.222C283.647 105.885 284.679 109.479 286.647 112.57C286.647 112.57 287.645 170.036 287.596 175.418C282.118 178.096 283.652 177.853 282.726 177.39C282.726 177.39 271.477 133.974 270.917 132.05C270.917 131.807 270.162 131.515 269.894 131.49C251.291 131.076 147.706 131.661 139.402 131.661C138.063 133.217 136.978 134.976 136.188 136.872C136.188 137.091 147.097 173.932 147.56 175.369C144.272 183.064 126.643 232.129 124.89 236.487L106.895 236.341C107.956 236.078 108.944 235.581 109.787 234.886C110.629 234.19 111.306 233.315 111.765 232.324C112.69 230.132 112.544 230.083 112.958 192.146C112.962 192.077 112.951 192.008 112.927 191.943C112.902 191.878 112.865 191.819 112.817 191.769C112.77 191.719 112.712 191.679 112.648 191.651C112.585 191.624 112.516 191.61 112.447 191.61C100.808 191.44 89.1683 191.221 77.5534 191.026C76.9446 191.026 76.969 191.416 76.7985 197.406C73.9956 197.016 71.1418 197.545 68.6656 198.915C67.5979 199.654 66.7464 200.664 66.1986 201.841C65.6507 203.018 65.4265 204.319 65.5488 205.612C65.5488 208.753 65.6706 211.967 65.8654 215.108C66.3037 221.61 69.1526 224.556 75.8976 223.777C75.6623 226.013 75.9541 228.273 76.7498 230.376C77.4824 231.768 78.4837 233.001 79.6957 234.004C80.9078 235.007 82.3066 235.76 83.8113 236.22C73.2678 236.22 15.6313 236.877 14.219 236.901C13.6346 236.901 13.8781 239.336 14.219 247.713C14.2189 247.851 14.272 247.983 14.3672 248.083C14.4625 248.183 14.5925 248.242 14.7304 248.248C26.3697 248.955 94.4036 247.761 99.9554 247.737C99.3096 253.477 99.0006 259.25 99.0301 265.026C99.2005 270.626 101.002 277.201 96.2055 283.093C93.2711 286.353 89.6771 288.951 85.6619 290.715C85.5892 290.748 85.5275 290.801 85.4843 290.868C85.441 290.935 85.418 291.013 85.418 291.092C85.418 291.172 85.441 291.25 85.4843 291.317C85.5275 291.384 85.5892 291.437 85.6619 291.47C95.0675 298.645 105.205 304.808 115.905 309.854C120.964 308.151 125.584 305.348 129.432 301.647C133.28 297.947 136.261 293.44 138.161 288.45C143.907 273.84 136.87 259.961 142.373 247.055C150.555 246.714 201.958 247.737 206.389 247.542C211.206 251.888 216.991 255.019 223.264 256.674C241.234 261.884 261.031 251.365 273.79 237.778C274.217 238.14 274.673 238.466 275.154 238.752C275.495 238.947 277.296 237.754 278.003 237.437C272.865 251 266.095 282.241 265.438 285.796C257.695 284.335 226.478 278.759 216.738 277.59C208.372 276.322 199.877 276.133 191.463 277.03C169.986 279.977 161.22 292.809 155.376 313.555C153.477 320.251 151.918 326.996 150.506 333.814C137.016 333.449 46.5315 333.23 37.9359 333.133C37.9359 326.899 36.7915 251.049 36.6941 249.856C36.6941 249.515 36.134 249.515 36.134 249.856C36.134 254.726 37.8142 405.33 37.8872 406.523C37.8872 407.205 39.0073 407.205 38.983 406.523C38.5447 396.637 37.9116 338.003 37.9359 334.082C45.5818 334.228 143.712 334.35 150.409 334.423C144.662 350.811 143.104 422.083 143.591 422.229C145.583 423.022 147.635 423.657 149.727 424.129C149.532 425.565 148.436 434.063 148.363 434.94C146.78 435.695 140.303 439.299 136.188 439.225C130.49 439.225 129.589 442.756 130.734 444.095C131.878 445.435 152.259 451.668 155.985 449.866C157.519 449.087 159.881 437.838 159.783 437.691C160.83 435.817 163.85 427.951 164.653 426.052C166.772 426.247 169.012 426.49 171.471 426.831C178.582 407.838 201.3 343.798 203.93 340.827C206.365 340.316 265.341 354.195 277.783 356.411C277.978 341.29 283.579 270.772 306.443 231.009C318.618 209.824 340.899 192.584 364.713 189.882C376.011 188.591 390.086 189.882 397.683 199.622C412.293 217.908 393.056 251.414 383.657 272.866C370.84 301.854 364.349 333.24 364.616 364.934C324.755 384.414 291.322 388.042 255.041 380.907C243.143 378.635 231.456 375.377 220.098 371.167C215.228 369.049 203.686 359.406 202.152 347.402C200.789 350.786 194.677 366.882 194.458 367.734C195.992 381.516 215.301 422.935 215.301 422.935L220.999 421.645C221.413 422.643 224.408 429.9 224.822 430.776C223.459 432.213 218.808 437.57 215.082 438.836C209.701 440.711 210.212 444.461 211.649 445.289C212.793 445.922 234.465 444.923 237.314 441.953C238.361 440.857 237.314 432.042 236.802 429.778C236.772 425.888 236.528 422.002 236.072 418.138C238.149 417.726 240.193 417.156 242.184 416.434C242.598 415.85 241.867 390.842 237.314 378.058C241.161 379.13 257.476 382.782 261.664 383.464C261.372 384.852 260.714 401.653 260.738 401.727C260.982 405.282 265.852 407.449 269.651 408.033C272.36 408.471 275.122 408.471 277.832 408.033C277.564 409.299 275.105 442.367 275.397 442.513C291.971 451.233 309.635 457.702 327.92 461.749C327.409 462.212 324.462 464.623 325.022 471.489C294.877 468.47 271.672 453.836 271.209 454.079C251.729 464.257 218.199 473.389 217.176 473.559C216.665 471.124 217.493 468.689 217.176 466.254C217.103 465.476 216.844 464.726 216.42 464.069C215.996 463.413 215.42 462.867 214.741 462.48C217.907 462.188 249.343 455.662 267.021 442.732C267.264 442.561 268.141 408.642 268.019 408.228C268 408.162 267.96 408.104 267.905 408.062C267.85 408.021 267.783 407.998 267.715 407.998C267.646 407.998 267.579 408.021 267.524 408.062C267.469 408.104 267.429 408.162 267.41 408.228C267.216 408.837 266.095 436.304 266.047 441.953C266.047 442.148 247.468 456.051 212.891 461.798C212.837 461.814 212.788 461.841 212.746 461.878C212.704 461.914 212.67 461.96 212.647 462.01C212.624 462.061 212.612 462.116 212.612 462.172C212.612 462.228 212.624 462.283 212.647 462.334C210.894 466.644 212.866 474.509 213.207 474.874C213.38 474.937 213.564 474.966 213.748 474.957C213.932 474.949 214.112 474.904 214.279 474.825C218.175 474.29 240.479 468.299 271.915 454.907C295.437 469.054 324.535 472.488 328.943 472.682C329.308 472.682 331.378 464.184 330.112 461.262C330.13 461.19 330.133 461.115 330.122 461.042C330.111 460.969 330.086 460.898 330.047 460.835C330.009 460.771 329.958 460.716 329.898 460.673C329.838 460.629 329.77 460.598 329.698 460.58C327.871 460.093 309.195 458.389 276.347 441.709C276.347 441.709 278.782 409.153 278.782 407.619C279.707 407.424 284.407 406.012 285.746 403.894C285.746 403.748 287.183 386.849 286.89 385.388C298.262 385.388 327.579 384.706 365.687 365.762C365.687 365.762 366.052 365.348 366.004 365.153C365.905 354.339 366.589 343.532 368.049 332.816C370.484 332.816 448.404 334.423 450.011 334.228C450.14 334.228 450.264 334.177 450.355 334.086C450.447 333.994 450.498 333.87 450.498 333.741C450.498 333.612 450.447 333.488 450.355 333.397C450.264 333.306 450.14 333.254 450.011 333.254C447.308 333.011 371.02 331.866 368.171 332.061C373.631 302.742 383.155 274.328 396.465 247.64C401.141 248.005 442.925 247.859 451.569 247.859C451.789 256.235 450.108 376.329 450.206 388.918C450.206 398.001 451.375 417.676 451.472 418.406C451.569 419.137 452.422 418.991 452.349 418.406C452.276 417.822 452.349 248.419 452.349 247.956L472.754 248.2C474.751 248.2 472.583 244.523 473.63 238.703C473.458 238.136 473.139 237.623 472.705 237.218ZM439.273 49.2603L365.833 55.4452C369.437 53.0102 367.124 47.6532 366.466 46.9714C375.33 46.7522 436.472 42.4179 441.489 42.1014C439.516 43.4406 439.005 47.5558 439.273 49.2603ZM158.736 437.521C156.52 436.888 150.749 435.378 148.996 435.086C149.142 434.258 150.311 425.93 150.506 424.542C154.813 425.33 159.163 425.858 163.533 426.125C162.705 427.659 159.71 435.403 158.736 437.521ZM443.169 54.1059C445.203 54.9055 447.4 55.198 449.573 54.9582C441.829 65.6478 419.793 96.1584 419.33 97.035L410.442 97.3515C412.658 94.2591 441.61 56.0052 443.169 54.1059ZM315.282 118.633V126.912C328.188 123.016 324.316 135.532 324 136.287C322.782 139.014 328.504 141.157 330.355 141.839C333.596 143.049 337.13 143.245 340.485 142.399C340.485 144.225 340.874 156.376 341.02 157.959C333.491 156.416 325.679 157.05 318.497 159.785L316.549 153.04C316.524 152.955 316.48 152.877 316.42 152.812C316.361 152.747 316.287 152.696 316.205 152.663C316.123 152.63 316.035 152.616 315.947 152.623C315.858 152.629 315.773 152.655 315.696 152.699C311.946 154.55 299.455 154.793 299.284 141.108C299.284 140.134 297.799 140.962 295.121 138.99C297.123 133.217 298.16 127.154 298.189 121.044C300.161 121.336 312.117 121.58 315.307 118.633H315.282ZM343.748 159.712C344.602 162.004 345.063 164.425 345.111 166.871C335.389 165.179 325.46 165.047 315.696 166.481C315.684 165.116 315.462 163.761 315.039 162.463C323.931 157.968 334.189 156.986 343.772 159.712H343.748ZM297.483 120.752C297.342 126.956 296.207 133.097 294.122 138.941C294.075 139.018 294.05 139.107 294.05 139.197C294.05 139.287 294.075 139.376 294.122 139.453C295.297 140.416 296.682 141.092 298.164 141.425C297.99 143.581 298.377 145.745 299.29 147.707C300.203 149.668 301.61 151.358 303.372 152.612C305.134 153.866 307.192 154.642 309.344 154.862C311.496 155.082 313.668 154.739 315.648 153.868C316.232 155.962 316.841 158.032 317.425 160.126C316.311 160.578 315.221 161.09 314.162 161.66C313.432 162.049 314.455 162.536 314.82 166.53C305.645 168.094 296.735 170.938 288.351 174.979C288.57 155.183 287.743 137.212 287.426 114.104C289.777 117.543 293.345 119.962 297.41 120.874L297.483 120.752ZM249.27 207.267C249.473 207.703 249.652 208.151 249.805 208.607C249.172 208.972 238.288 218.347 236.169 220.441C230.471 217.373 172.299 181.481 170.863 180.677C170.668 179.801 163.558 160.467 162.316 156.327C163.825 156.327 175.416 156.498 179.677 156.644C179.775 156.653 179.874 156.634 179.962 156.591C180.05 156.548 180.125 156.481 180.178 156.398C180.231 156.315 180.26 156.219 180.262 156.121C180.263 156.022 180.238 155.925 180.189 155.84C178.703 150.459 177.34 145.053 175.976 139.647C186.374 140.061 253.677 139.842 256.575 139.647C256.818 141.839 258.644 152.602 259.01 153.21C259.01 153.21 228.061 180.409 228.012 180.482C227.72 181.018 225.577 186.521 224.847 187.787C224.808 187.856 224.79 187.934 224.795 188.013C224.799 188.092 224.826 188.167 224.872 188.231C224.918 188.295 224.981 188.345 225.054 188.374C225.127 188.403 225.207 188.411 225.285 188.396C226.892 188.128 233.15 186.521 234.684 185.961L244.424 175.345C246.055 176.659 264.074 189.955 264.756 190.393C258.916 195.368 253.596 200.924 248.88 206.975C248.685 207.146 249.05 207.56 249.27 207.267ZM253.799 165.385C256.234 163.194 258.669 160.905 260.933 158.64C261.347 160.783 262.881 170.475 263.149 171.4C260.789 170.676 258.391 170.083 255.966 169.622C255.966 169.622 258.109 165.58 253.799 165.385ZM253.117 164.825C253.075 164.864 253.041 164.911 253.018 164.964C252.995 165.016 252.983 165.073 252.983 165.13C252.983 165.187 252.995 165.244 253.018 165.296C253.041 165.348 253.075 165.395 253.117 165.434C246.786 165.848 247.492 168.648 249.537 169.111C246.859 171.546 235.901 183.721 234.562 184.817C233.588 183.989 229.083 180.531 228.986 180.458C235.707 174.614 261.031 152.626 261.859 151.871C262.165 151.549 262.567 151.333 263.004 151.254C263.442 151.175 263.894 151.238 264.294 151.433C264.626 151.688 264.859 152.052 264.953 152.461C265.046 152.87 264.994 153.299 264.805 153.673C264.61 153.965 256.818 161.489 253.239 164.825H253.117ZM233.759 185.304C231.161 186.221 228.488 186.913 225.772 187.373C226.234 186.424 228.207 181.529 228.402 180.896C228.548 180.969 232.931 184.476 233.759 185.304ZM244.667 174.931C246.518 173.031 248.393 171.156 250.219 169.208C250.828 169.208 251.461 169.354 251.778 169.963C251.81 170.041 251.872 170.102 251.949 170.134C252.027 170.166 252.114 170.166 252.192 170.134C252.269 170.101 252.331 170.04 252.363 169.962C252.395 169.884 252.394 169.797 252.362 169.72C252.143 168.454 249.927 168.551 249.367 168.283C248.807 168.015 248.661 167.455 249.221 167.114C250.968 166.182 253.001 165.939 254.919 166.432C256.307 167.309 254.919 169.452 254.919 169.817C254.919 170.182 255.308 170.255 255.552 170.085C260.178 171.351 281.071 178.242 281.899 178.388C278.636 180.19 267.605 187.958 265.414 189.93C264.732 189.127 246.615 175.953 244.716 174.931H244.667ZM269.967 132.732C270.43 135.946 280.681 174.371 281.29 177.122C280.827 177.122 265.949 172.252 264.099 171.692C263.88 170.621 262.175 160.272 261.396 158.153C262.37 157.228 265.365 154.623 265.657 154.184C265.82 153.381 265.82 152.553 265.657 151.749C265.418 151.172 264.978 150.701 264.419 150.423C263.859 150.146 263.218 150.08 262.613 150.24C261.557 150.947 260.577 151.763 259.691 152.675C259.063 147.945 258.169 143.254 257.013 138.625C254.383 138.503 181.698 138.99 175.83 138.99C175.294 136.847 174.783 134.729 174.223 132.635C177.754 132.659 269.918 132.805 270.016 132.732H269.967ZM173.176 132.732C175.099 140.329 177.121 147.926 178.922 155.548C174.88 155.378 156.423 155.402 154.378 155.548C153.939 153.624 148.777 136.409 147.511 132.659C156.106 132.781 164.678 132.756 173.225 132.683L173.176 132.732ZM139.816 132.732H146.853C147.608 136.725 152.795 154.233 153.623 156.084C153.623 156.23 161.244 156.352 161.683 156.352C162.705 160.637 169.426 179.484 169.645 180.093C164.684 177.082 158.752 176.105 153.087 177.366C149.995 165.337 139.841 132.683 139.865 132.586L139.816 132.732ZM136.919 137.042L139.086 133.438C140.084 138.99 151.48 174.371 152.308 177.609C151.262 178.203 150.33 178.978 149.556 179.898C148.899 177.317 136.992 137.018 136.967 136.896L136.919 137.042ZM149.581 185.304C149.655 185.764 149.835 186.201 150.105 186.581C150.375 186.961 150.729 187.274 151.139 187.495C150.947 187.811 150.845 188.173 150.844 188.542C150.844 188.911 150.944 189.274 151.135 189.59C151.326 189.906 151.599 190.164 151.926 190.336C152.253 190.507 152.621 190.586 152.99 190.563C152.923 191.204 153.098 191.847 153.481 192.365C153.864 192.883 154.427 193.239 155.059 193.364C154.767 194.63 168.525 233.882 169.986 237.194C167.746 237.194 141.302 236.828 130.32 236.731C130.32 236.731 147.803 186.18 149.118 182.528C149.152 182.792 149.239 183.046 149.372 183.276C149.506 183.506 149.685 183.707 149.897 183.867C149.658 184.307 149.549 184.805 149.581 185.304ZM173.541 237.194H170.96C165.944 226.114 156.593 196.651 155.644 193.51C156.399 193.464 157.149 193.35 157.884 193.169C158.663 195.847 172.324 234.174 173.541 237.194ZM158.395 192.95C158.688 192.95 161.244 191.927 162.17 191.464C162.17 191.464 186.081 225.968 196.576 237.486L174.515 237.194C173.687 234.418 159.613 195.872 158.395 192.95ZM147.584 176.416C149.532 182.406 149.337 180.166 148.801 181.481C145.855 188.372 129.321 236.56 129.321 236.658H125.766C132.049 220.782 146.099 180.458 147.584 176.416ZM75.4836 222.876C65.6219 224.045 66.5228 216.934 66.2063 207.608C66.2063 205.003 65.9384 202.227 68.1056 200.303C70.2727 198.38 73.4869 198.477 76.3846 198.209C76.3846 198.696 76.3846 200.644 76.2628 201.326C75.4084 200.918 74.46 200.746 73.5167 200.83C72.5734 200.914 71.6699 201.249 70.9009 201.802C70.1318 202.355 69.5253 203.104 69.1449 203.971C68.7646 204.838 68.6242 205.792 68.7387 206.732C68.7387 208.266 68.9578 214.402 69.0796 215.912C69.4205 219.735 71.5146 220.782 75.508 220.392C75.4836 221.269 75.4836 222.072 75.4836 222.876ZM75.4836 219.515C70.8815 220.149 70.0049 218.566 69.8588 215.011C69.5179 206.634 69.3718 205.271 70.0049 204.126C70.2744 203.634 70.6504 203.208 71.1053 202.88C71.5602 202.551 72.0827 202.328 72.6347 202.227C73.8035 201.935 75.0697 202.227 76.1898 201.983C76.1654 206.415 75.7028 218.128 75.6297 219.515H75.4836ZM77.9186 231.325C75.2645 228.525 77.7725 192.998 77.9186 192.17C89.217 192.39 100.515 192.584 111.814 192.828C111.619 204.589 111.595 216.374 111.327 228.135C111.327 233.005 109.671 235.611 102.293 236.317C101.757 236.317 86.1002 236.073 85.248 235.854C82.4093 235.106 79.8577 233.529 77.9186 231.325ZM15.0713 247.396C14.9008 244.206 14.3651 237.656 14.2434 237.656C25.3713 237.461 102.561 237.656 104.655 237.656C101.684 239.58 100.101 246.422 100.028 246.69C89.5579 246.714 21.3536 247.615 14.9495 247.348L15.0713 247.396ZM141.91 245.448C135.312 257.891 141.91 272.574 138.087 284.408C136.405 289.94 133.498 295.022 129.582 299.275C125.665 303.529 120.841 306.845 115.466 308.977C112.885 307.662 87.0012 291.47 86.7333 291.275C88.2187 290.739 99.7849 286.161 100.369 275.082C100.369 272.939 99.9554 257.161 100.053 254.774C100.15 252.388 100.881 241.942 105.58 237.534L149.849 238.046C146.372 239.459 143.514 242.067 141.789 245.4L141.91 245.448ZM142.47 246.763C143.442 244.676 144.858 242.827 146.621 241.346C148.384 239.865 150.45 238.788 152.673 238.192L197.769 238.801C198.524 239.677 203.419 245.18 205.269 246.909C197.234 247.299 146.634 246.447 142.349 246.714L142.47 246.763ZM226.332 256.503C221.672 255.248 217.158 253.501 212.866 251.292C202.298 246.422 162.705 190.856 162.535 190.88C160.684 191.196 159.004 192.049 157.178 192.487C155.352 192.925 153.939 191.83 154.061 190.856C155.113 190.112 156.113 189.298 157.056 188.421C157.251 188.177 157.056 187.836 156.691 188.055C155.693 189.005 154.256 190.32 152.722 189.687C152.528 189.644 152.35 189.546 152.209 189.406C152.068 189.265 151.97 189.087 151.927 188.893C151.883 188.699 151.896 188.496 151.963 188.309C152.031 188.122 152.15 187.958 152.308 187.836C152.874 187.849 153.427 187.664 153.871 187.312C154.316 186.961 154.624 186.466 154.743 185.912C154.743 185.572 154.402 185.474 154.232 185.766C153.136 187.739 151.115 187.106 150.774 185.474C150.53 184.33 151.577 183.38 152.795 183.234C153.184 183.234 153.16 182.552 152.795 182.479C152.348 182.445 151.899 182.509 151.479 182.664C151.059 182.819 150.677 183.064 150.36 183.38C150.026 182.606 149.993 181.735 150.268 180.938C150.543 180.14 151.105 179.474 151.845 179.07C153.373 178.199 155.103 177.745 156.861 177.755C164.166 177.755 169.913 181.262 175.221 184.622C177.754 186.375 230.812 219.369 237.898 222.754C238.58 223.071 239.189 222.097 238.483 221.707L236.729 220.757C238.921 219.004 249.732 209.824 250.219 209.24C256.22 219.637 263.756 229.07 272.573 237.218C260.544 250.026 241.989 259.766 226.21 256.454L226.332 256.503ZM373.503 188.445C302.596 188.226 286.598 278.54 284.236 289.57L266.461 286.259C267.776 279.855 277.832 240.651 278.855 237.194C279.902 236.682 287.791 232.811 288.887 232.129C289.252 231.885 288.887 231.228 288.57 231.374C286.135 232.202 277.272 236.658 275.178 237.9C264.963 229.106 256.388 218.57 249.854 206.78C255.649 199.695 280.365 171.449 320.956 166.944C325.582 166.432 357.481 163.973 372.432 185.669C372.889 186.523 373.209 187.443 373.382 188.396L373.503 188.445ZM402.723 206.61C402.553 206.074 398.219 189.565 375.062 188.542C373.43 184.208 369.997 174.103 346.377 167.309C346.206 164.559 345.683 161.842 344.819 159.225C344.576 158.787 342.579 158.373 342.043 158.251C342.043 156.668 341.751 142.302 341.751 142.131C343.066 141.839 343.748 139.696 343.845 139.258C345.118 132.962 345.932 126.582 346.28 120.167C351.442 120.167 386.847 119.851 390.11 119.827C390.67 138.844 392.155 187.812 392.545 193.266C392.571 193.386 392.637 193.493 392.732 193.57C392.828 193.646 392.946 193.688 393.069 193.688C393.191 193.688 393.31 193.646 393.405 193.57C393.5 193.493 393.566 193.386 393.592 193.266C393.592 183.526 391.522 124.672 391.352 119.218C391.346 119.058 391.28 118.907 391.167 118.794C391.054 118.681 390.903 118.615 390.743 118.609C378.422 118.804 348.788 119.34 346.329 119.437C346.486 115.693 346.397 111.943 346.061 108.212C347.522 108.212 391.328 107.992 397.196 107.895C397.488 119.632 401.092 198.867 401.116 198.891H399.68C399.602 198.891 399.528 198.922 399.473 198.977C399.418 199.031 399.387 199.106 399.387 199.183C399.387 199.261 399.418 199.335 399.473 199.39C399.528 199.445 399.602 199.475 399.68 199.475C406.011 199.305 436.716 197.99 437.446 197.795C437.69 197.795 437.909 197.138 437.909 196.967C438.079 193.899 436.472 109.478 436.156 106.093C436.156 105.606 347.863 107.189 345.939 107.165C345.624 105.027 344.596 103.059 343.023 101.579C341.45 100.099 339.423 99.1925 337.271 99.0073C337.352 98.8879 337.442 98.774 337.538 98.6664C348.666 98.8856 437.982 97.2298 447.113 96.7915C446.699 103.829 447.966 198.307 447.454 206.366C441.367 206.123 406.011 206.342 402.626 206.561L402.723 206.61ZM437.276 197.113C435.864 196.919 402.139 198.745 402.139 198.721C401.628 186.789 398.316 114.348 397.902 107.822C404.306 107.822 429.07 106.945 435.036 106.58C434.841 109.015 436.765 195.799 437.179 197.065L437.276 197.113ZM225.48 430.192C225.187 429.339 222.265 422.205 221.925 421.304C225.918 420.379 230.958 419.234 235.025 418.236C235.025 419.088 235.78 426.344 235.974 429.145C233.759 429.291 227.135 429.924 225.48 430.192ZM216.324 473.583C215.545 473.778 214.766 473.973 213.889 474.216C212.687 470.398 212.436 466.344 213.159 462.407C214.101 462.84 214.933 463.481 215.594 464.282C217.347 466.911 215.569 470.491 216.324 473.583ZM328.918 461.628H329.43C329.772 464.899 329.483 468.205 328.578 471.368C327.75 471.368 326.946 471.368 326.143 471.221C326.118 471.148 325.266 464.72 328.918 461.628ZM284.674 403.407C269.456 412.952 261.761 401.727 261.81 401.532C262.053 400.046 262.589 384.803 262.37 383.415C269.529 384.56 285.405 385.461 286.062 385.485C285.746 386.824 284.674 401.97 284.674 403.407ZM401.555 232.957C403.99 233.322 427.974 232.129 429.119 232.299C430.263 232.47 430.775 233.225 430.19 234.052C429.961 234.523 429.828 235.035 429.799 235.557C429.77 236.08 429.845 236.603 430.02 237.096H400.215C400.678 235.83 401.116 234.418 401.555 233.005V232.957ZM396.514 246.958C397.318 245.01 399.533 239.142 399.874 238.143C400.873 238.314 467.129 238.265 472.364 238.143C471.852 241.149 471.852 244.22 472.364 247.226C471.269 247.226 401.774 247.055 396.514 247.007V246.958Z" fill="black"/>
<path d="M85.4164 416.725C85.4164 416.725 94.5963 417.675 96.4226 417.748C96.5687 417.748 104.702 410.735 106.163 409.128C106.382 408.86 105.822 407.935 105.529 407.935C103.776 407.935 95.0833 407.716 94.9129 407.935C93.184 409.225 86.7069 414.996 85.0511 416.408C84.7102 416.555 85.2216 416.944 85.4164 416.725ZM95.546 408.47C96.2278 408.641 103.387 408.909 104.945 408.957C103.581 410.248 96.6904 416.384 96.3982 416.676C94.5963 416.676 87.827 415.97 86.2443 416.043C87.6566 414.923 95.5216 408.519 95.546 408.47ZM90.6029 435.012C90.7165 434.987 90.8181 434.923 90.8909 434.833C90.9637 434.742 91.0033 434.629 91.0033 434.513C91.0033 434.396 90.9637 434.283 90.8909 434.193C90.8181 434.102 90.7165 434.039 90.6029 434.014C89.5559 433.746 67.8113 431.895 63.2092 431.579C62.8196 431.579 62.8439 432.114 63.2092 432.163C67.86 432.674 89.4828 435.061 90.6029 435.012ZM70.8551 426.562C75.092 427.001 95.0346 428.997 95.8625 428.51C95.9182 428.478 95.9644 428.432 95.9965 428.377C96.0286 428.321 96.0455 428.258 96.0455 428.194C96.0455 428.13 96.0286 428.067 95.9965 428.011C95.9644 427.956 95.9182 427.909 95.8625 427.877C95.132 427.317 75.092 426.222 70.8551 426.002C70.6116 425.978 70.6116 426.538 70.8551 426.562ZM76.7234 421.595C80.1324 422.52 94.5233 423.105 98.1271 423.421C98.8576 423.421 98.8819 422.277 98.1271 422.252C91.0255 422.241 83.9295 421.851 76.8695 421.084C76.5286 421.035 76.3825 421.498 76.7234 421.595Z" fill="black"/>
<path d="M131.683 422.642C128.785 422.399 117.511 421.985 114.784 421.863C116.561 419.282 125.23 406.547 125.888 404.964C125.888 404.672 125.206 404.355 125.011 404.282C123.842 403.795 95.2309 400.484 94.1108 400.825C94.1108 400.825 46.7988 436.327 43.2437 439.371C43.2437 439.371 43.2436 440.077 43.4871 440.15C44.2176 440.418 67.1067 442.95 68.4946 443.121C64.4038 446.822 60.3455 450.555 56.3196 454.322C56.2466 454.393 56.1967 454.485 56.1763 454.585C56.1559 454.685 56.1661 454.789 56.2054 454.884C56.2447 454.978 56.3114 455.058 56.3969 455.114C56.4823 455.17 56.5826 455.2 56.6849 455.198C70.053 456.123 104.143 460.531 107.82 461.164C107.934 461.196 108.056 461.19 108.166 461.146C108.276 461.102 108.368 461.023 108.429 460.92C114.005 450.888 130.076 426.076 132.048 423.446C132.389 423.105 132.024 422.691 131.683 422.642ZM44.2176 439.322C47.2857 437.106 94.6709 401.604 94.6465 401.433C95.6449 401.652 123.647 405.208 124.889 405.208C124.183 406.23 96.7893 445.604 96.7893 445.604C93.5264 445.117 44.9481 439.322 44.2176 439.322ZM107.747 460.044C94.6465 457.779 61.4818 454.419 57.9267 454.224C61.7983 450.547 65.8404 446.919 69.639 443.267C98.4207 446.797 97.3737 446.432 97.6415 446.043C113.006 425.15 113.932 422.642 114.248 422.74C117.17 422.886 128.128 423.592 130.709 423.665C127.665 428.17 109.305 457.268 107.747 460.044ZM411.513 428.559C404.208 427.22 361.376 412.805 361.035 412.756C360.695 412.707 320.736 428.584 320.201 428.803C320.086 428.774 319.966 428.785 319.859 428.834C319.752 428.884 319.665 428.968 319.614 429.074C319.562 429.18 319.549 429.301 319.576 429.416C319.603 429.53 319.669 429.632 319.762 429.704C324.243 432.455 364.152 453.664 364.834 453.348C366.49 452.568 404.062 432.918 411.659 429.631C411.75 429.566 411.822 429.478 411.867 429.376C411.911 429.274 411.927 429.161 411.912 429.05C411.897 428.94 411.852 428.836 411.781 428.749C411.711 428.662 411.618 428.597 411.513 428.559ZM364.42 452.325C352.245 445.75 323.196 430.605 320.98 429.265C327.725 426.83 360.475 414.168 360.865 413.901L409.419 429.338C397.463 434.501 367.683 450.328 364.444 452.252L364.42 452.325Z" fill="black"/>
<path d="M373.578 426.831C370.598 424.609 366.912 423.544 363.205 423.836C348.936 424.956 351.81 441.733 365.64 441.125C377.28 440.613 376.89 432.456 376.89 432.456C376.904 431.305 376.602 430.173 376.019 429.182C375.435 428.19 374.591 427.377 373.578 426.831ZM360.21 439.006C352.199 435.694 353.173 425.078 364.642 424.98V432.626C367.303 430.706 370.159 429.074 373.164 427.756C373.901 428.094 374.538 428.617 375.012 429.274C375.486 429.931 375.78 430.701 375.867 431.506C376.257 439.81 364.301 440.735 360.21 438.909V439.006ZM349.594 423.69C348.668 423.933 340.195 428.049 338.32 428.95C337.93 429.144 338.32 429.729 338.661 429.558C340.56 428.73 349.058 424.956 349.886 424.372C349.976 424.333 350.048 424.26 350.084 424.169C350.121 424.077 350.119 423.975 350.081 423.885C350.042 423.794 349.969 423.723 349.878 423.686C349.786 423.65 349.684 423.651 349.594 423.69ZM345.771 430.021C345.479 430.143 343.092 431.506 342.581 431.847C342.523 431.905 342.485 431.98 342.475 432.061C342.465 432.143 342.482 432.225 342.524 432.295C342.566 432.365 342.631 432.419 342.707 432.449C342.784 432.478 342.868 432.48 342.946 432.456C343.482 432.164 345.844 430.776 346.087 430.557C346.331 430.337 345.99 429.924 345.771 430.021ZM117.806 281.364C116.466 285.356 113.758 288.746 110.16 290.934C110.16 290.934 119.754 296.047 120.314 296.072C120.874 296.096 127.887 294.903 129.348 286.137C125.42 284.748 121.567 283.155 117.806 281.364ZM130.979 275.155C130.176 274.619 111.499 267.558 107.433 266.072C107.141 266.072 107.019 266.438 107.433 266.559C111.305 268.118 129.762 275.642 130.809 275.812C130.882 275.803 130.95 275.773 131.005 275.724C131.06 275.676 131.099 275.612 131.118 275.542C131.136 275.471 131.133 275.396 131.108 275.327C131.083 275.258 131.038 275.198 130.979 275.155ZM131.32 261.836C129.64 261.081 111.28 255.918 109.405 255.602C109.089 255.602 108.967 255.943 109.405 256.089C111.134 256.771 129.397 262.152 131.32 262.396C131.491 262.444 131.686 262.006 131.32 261.836ZM109.576 246.325C112.985 246.982 128.325 249.709 130.005 249.685C130.089 249.663 130.163 249.615 130.216 249.546C130.27 249.478 130.298 249.394 130.298 249.307C130.298 249.221 130.27 249.137 130.216 249.069C130.163 249 130.089 248.951 130.005 248.93C128.423 248.394 112.96 246.203 109.551 245.765C109.357 245.74 109.284 246.276 109.576 246.325ZM88.1721 175.32C89.0437 174.602 89.7228 173.679 90.1479 172.633C90.5731 171.587 90.7309 170.452 90.6071 169.33C90.6071 168.94 89.7792 168.892 89.7792 169.33C89.7021 170.535 89.3424 171.706 88.729 172.746C88.1156 173.787 87.2658 174.669 86.2484 175.32C83.6673 176.927 84.4709 180.507 84.7874 181.675C84.7874 182.114 85.5179 181.919 85.4449 181.481C85.0179 180.3 85.0631 179 85.5713 177.853C86.0794 176.705 87.0111 175.797 88.1721 175.32ZM108.943 181.846C116.248 174.273 111.548 168.332 109.697 166.164C105.509 161.294 91.3132 151.554 98.8861 141.814C99.3 141.303 98.7156 140.426 98.1556 140.889C84.4222 151.92 94.917 162.926 96.9868 165.239C104.414 173.567 97.9608 181.213 94.3083 182.406C94.2297 182.449 94.1681 182.517 94.1341 182.6C94.1 182.682 94.0954 182.774 94.1211 182.86C94.1468 182.946 94.2013 183.02 94.2752 183.07C94.3492 183.121 94.4383 183.144 94.5274 183.136C97.4007 182.357 104.706 177.755 100.591 168.258C99.3487 165.41 86.4676 154.476 96.1832 144.079C92.1898 151.676 103.147 161.611 105.655 163.705C115.955 172.422 110.136 178.315 108.09 181.286C107.896 181.724 108.553 182.235 108.943 181.846Z" fill="black"/>
</svg>
